<svg width="233" height="84" viewBox="0 0 233 84" fill="none" xmlns="http://www.w3.org/2000/svg">
<path d="M15.5437 29.8776H6.44923C6.29753 29.8776 6.17456 30.0006 6.17456 30.1523V32.1631C6.17456 32.3148 6.29753 32.4378 6.44923 32.4378H15.5437C15.6954 32.4378 15.8184 32.3148 15.8184 32.1631V30.1523C15.8184 30.0006 15.6954 29.8776 15.5437 29.8776Z" fill="#E6BE8A" stroke="#E6BE8A" stroke-width="2" stroke-miterlimit="10"/>
<path d="M37.2593 36.6392C27.0763 36.6392 18.8193 44.8961 18.8193 55.0791C18.8193 65.2621 27.0763 73.5191 37.2593 73.5191C47.4423 73.5191 55.6993 65.2621 55.6993 55.0791C55.6993 44.8961 47.4423 36.6392 37.2593 36.6392ZM37.2593 70.43C28.7819 70.43 21.9085 63.5565 21.9085 55.0791C21.9085 46.6018 28.7819 39.7283 37.2593 39.7283C45.7367 39.7283 52.6101 46.6018 52.6101 55.0791C52.6101 63.5565 45.7367 70.43 37.2593 70.43Z" fill="#008080"/>
<path d="M37.2593 68.7718C44.8215 68.7718 50.9519 62.6414 50.9519 55.0792C50.9519 47.5169 44.8215 41.3865 37.2593 41.3865C29.6971 41.3865 23.5667 47.5169 23.5667 55.0792C23.5667 62.6414 29.6971 68.7718 37.2593 68.7718Z" fill="#DC143C" stroke="#E6BE8A" stroke-width="2" stroke-miterlimit="10"/>
<path d="M31.7252 55.6319C34.4932 55.6319 36.737 53.388 36.737 50.6201C36.737 47.8521 34.4932 45.6083 31.7252 45.6083C28.9572 45.6083 26.7134 47.8521 26.7134 50.6201C26.7134 53.388 28.9572 55.6319 31.7252 55.6319Z" fill="#FFB6C1"/>
<path d="M35.6112 56.4593C36.7367 56.4593 37.6492 55.5469 37.6492 54.4213C37.6492 53.2958 36.7367 52.3834 35.6112 52.3834C34.4857 52.3834 33.5732 53.2958 33.5732 54.4213C33.5732 55.5469 34.4857 56.4593 35.6112 56.4593Z" fill="#E6BE8A" stroke="#E6BE8A" stroke-miterlimit="10"/>
<path d="M59.5448 14.7099L59.243 14.6489C50.0637 12.7635 41.054 17.4905 37.2595 25.5406C33.465 17.4905 24.4553 12.7669 15.276 14.6489L14.9742 14.7099C14.7504 14.7574 14.6046 14.9744 14.652 15.1948L14.7131 15.4932C16.8324 25.5779 26.4424 32.2207 36.605 30.9356V32.6887H37.819V30.922C48.0156 32.258 57.6798 25.605 59.8059 15.4898L59.8703 15.1914C59.9178 14.9676 59.772 14.7506 59.5482 14.7065L59.5448 14.7099Z" fill="#808000" stroke="#E6BE8A" stroke-width="2" stroke-miterlimit="10"/>
<path d="M37.1914 33.2177C36.1165 27.9244 42.8577 24.6284 46.998 23.2856C48.5782 22.777 50.1991 22.3904 51.8505 22.2107C48.7986 23.3874 45.74 24.5471 42.9018 26.1408C40.2263 27.6532 37.2152 29.8268 37.1914 33.2143V33.2177Z" fill="#E6BE8A"/>
<path d="M37.2186 33.2618C37.1949 29.8742 34.1837 27.7007 31.5083 26.1883C28.6701 24.5945 25.6148 23.4348 22.5596 22.2582C24.211 22.4379 25.8284 22.8245 27.412 23.3331C31.5524 24.6725 38.2936 27.9719 37.2186 33.2652V33.2618Z" fill="#E6BE8A"/>
<path d="M38.0393 30.9153H36.3845V32.5701H38.0393V30.9153Z" fill="#E6BE8A"/>
<path d="M69.0054 32.2106H5.51334C3.30583 32.2106 1.5188 33.9977 1.5188 36.2052V70.5758C1.5188 72.7833 3.30583 74.5704 5.51334 74.5704H34.5059C24.9231 73.2309 17.5444 65.0045 17.5444 55.0521C17.5444 44.1637 26.3711 35.3371 37.2594 35.3371C48.1477 35.3371 56.9744 44.1637 56.9744 55.0521C56.9744 65.0045 49.5957 73.2309 40.0128 74.5704H69.0054C71.2129 74.5704 73 72.7833 73 70.5758V36.2052C73 33.9977 71.2129 32.2106 69.0054 32.2106ZM66.5504 39.4401H62.1862C61.4131 39.4401 60.7858 38.8128 60.7858 38.0397C60.7858 37.2665 61.4131 36.6392 62.1862 36.6392H66.5504C67.3235 36.6392 67.9509 37.2665 67.9509 38.0397C67.9509 38.8128 67.3235 39.4401 66.5504 39.4401Z" fill="#36454F" stroke="#E6BE8A" stroke-width="2" stroke-miterlimit="10"/>
<path d="M84.9663 41.1147L85.0059 42.4331C85.0059 42.6616 84.9443 42.8374 84.8213 42.9604C84.6982 43.0835 84.5488 43.145 84.373 43.145C84.2061 43.145 84.0654 43.0879 83.9512 42.9736C83.8369 42.8594 83.7798 42.7363 83.7798 42.6045C83.7798 42.4639 83.7886 42.3364 83.8062 42.2222C83.8325 42.0991 83.8545 41.9629 83.8721 41.8135C83.916 41.5586 83.938 40.9214 83.938 39.9019V23.5015L98.2686 34.8657V27.0083C98.2686 26.4106 98.251 25.9844 98.2158 25.7295C98.1719 25.3164 98.1499 25.0264 98.1499 24.8594C98.1499 24.4199 98.3389 24.2002 98.7168 24.2002C98.8662 24.2002 99.0068 24.2529 99.1387 24.3584C99.2793 24.4639 99.3496 24.6177 99.3496 24.8198V25.2812L99.2969 27.1929V43.7251L84.9663 32.4795V41.1147ZM115.526 75.0376L115.552 74.1279V72.0449C114.313 74.1104 112.485 75.4243 110.068 75.9868C109.303 76.1626 108.411 76.2505 107.392 76.2505C106.381 76.2505 105.331 76.0396 104.241 75.6177C103.16 75.1958 102.21 74.585 101.393 73.7852C99.6001 72.0449 98.7036 69.7554 98.7036 66.9165C98.7036 64.2007 99.6528 61.9023 101.551 60.0215C103.529 58.0791 106.012 57.1079 109 57.1079C110.512 57.1079 111.878 57.3892 113.1 57.9517C113.847 58.2856 114.375 58.5977 114.682 58.8877C114.99 59.1689 115.144 59.3975 115.144 59.5732C115.144 59.7402 115.091 59.8853 114.985 60.0083C114.88 60.1313 114.73 60.1929 114.537 60.1929C114.353 60.1929 114.146 60.0918 113.917 59.8896C113.241 59.292 112.643 58.9009 112.125 58.7163C111.615 58.5317 111.206 58.3999 110.898 58.3208C110.591 58.2417 110.314 58.1846 110.068 58.1494C109.69 58.0967 109.242 58.0703 108.723 58.0703C108.205 58.0703 107.726 58.1143 107.286 58.2021V75.2617C107.383 75.2705 107.479 75.2749 107.576 75.2749H107.84C110.45 75.2749 112.564 74.2861 114.181 72.3086C114.735 71.6318 115.192 70.832 115.552 69.9092V68.6436C115.552 68.6436 115.53 68.248 115.486 67.457C115.486 66.9912 115.671 66.7583 116.04 66.7583C116.233 66.7583 116.383 66.8242 116.488 66.9561C116.594 67.0791 116.646 67.2329 116.646 67.4175L116.567 68.5117V73.416L116.646 75.4595C116.646 75.6704 116.585 75.8374 116.462 75.9604C116.348 76.0835 116.211 76.145 116.053 76.145C115.667 76.145 115.473 75.9429 115.473 75.5386C115.473 75.4331 115.491 75.2661 115.526 75.0376Z" fill="#DC143C"/>
<path d="M112.797 42.1299C111.672 42.877 110.424 43.2505 109.053 43.2505C107.233 43.2505 105.774 42.7935 104.676 41.8794C103.533 40.939 102.962 39.6338 102.962 37.9639C102.962 36.4873 103.529 35.2744 104.663 34.3252C105.823 33.3672 107.348 32.8882 109.237 32.8882C110.503 32.8882 111.689 33.1299 112.797 33.6133V29.9878C111.997 29.7593 111.29 29.645 110.674 29.645C110.068 29.645 109.554 29.6714 109.132 29.7241C108.71 29.7769 108.31 29.856 107.932 29.9614C107.115 30.1899 106.495 30.4976 106.073 30.8843C105.827 31.1128 105.603 31.2271 105.401 31.2271C105.199 31.2271 105.045 31.1787 104.939 31.082C104.834 30.9766 104.781 30.8623 104.781 30.7393C104.781 30.6162 104.803 30.5063 104.847 30.4097C104.891 30.3042 104.975 30.1987 105.098 30.0933C105.361 29.8647 105.801 29.6362 106.416 29.4077C107.69 28.9243 108.969 28.6826 110.252 28.6826C114.155 28.6826 116.646 29.6143 117.728 31.4775C118.202 32.3037 118.439 33.3892 118.439 34.7339V43H112.797V42.1299ZM112.797 34.6416C111.689 34.1055 110.586 33.8374 109.488 33.8374C109.312 33.8374 109.145 33.8506 108.987 33.877V42.2617C109.031 42.2705 109.079 42.2749 109.132 42.2749C109.185 42.2749 109.237 42.2749 109.29 42.2749C110.494 42.2749 111.663 41.8486 112.797 40.9961V34.6416ZM121.538 41.2334C121.538 41.1016 121.582 40.9829 121.669 40.8774C121.766 40.7632 121.889 40.7061 122.039 40.7061C122.188 40.7061 122.311 40.75 122.408 40.8379C122.408 40.8379 122.518 40.939 122.737 41.1411C123.651 41.9409 124.93 42.3408 126.574 42.3408C127.681 42.3408 128.393 42.1123 128.709 41.6553C128.797 41.5322 128.841 41.4092 128.841 41.2861C128.841 41.1543 128.815 41.0312 128.762 40.917C128.718 40.7939 128.617 40.6489 128.459 40.4819C128.301 40.3062 128.077 40.0996 127.787 39.8623L126.626 38.9263C124.71 37.4321 123.396 36.2192 122.685 35.2876C122.034 34.4351 121.709 33.5649 121.709 32.6772C121.709 31.561 122.223 30.625 123.251 29.8691C124.315 29.0781 125.69 28.6826 127.378 28.6826C128.564 28.6826 129.5 28.8188 130.186 29.0913C130.872 29.3638 131.355 29.6143 131.636 29.8428C131.917 30.0625 132.058 30.2646 132.058 30.4492C132.058 30.8271 131.909 31.0161 131.61 31.0161C131.469 31.0161 131.337 30.9678 131.214 30.8711C131.1 30.7656 130.867 30.5942 130.516 30.3569C130.164 30.1108 129.698 29.9175 129.118 29.7769C128.538 29.6362 127.998 29.5659 127.497 29.5659C126.996 29.5659 126.64 29.645 126.429 29.8032C126.227 29.9614 126.125 30.1196 126.125 30.2778C126.125 30.4272 126.156 30.5723 126.218 30.7129C126.279 30.8447 126.394 31.0029 126.561 31.1875C126.947 31.6445 127.567 32.1851 128.419 32.8091C129.272 33.4331 129.993 34.0044 130.582 34.5229C131.17 35.0415 131.632 35.5205 131.966 35.96C132.572 36.751 132.875 37.5508 132.875 38.3594C132.875 39.168 132.726 39.8623 132.427 40.4424C132.128 41.0137 131.702 41.5059 131.148 41.9189C129.979 42.8066 128.419 43.2505 126.468 43.2505C124.904 43.2505 123.599 42.9517 122.553 42.354C121.876 41.9761 121.538 41.6025 121.538 41.2334ZM141.339 42.1562C141.752 42.2354 142.166 42.2749 142.579 42.2749C143 42.2749 143.405 42.2441 143.792 42.1826C144.187 42.1123 144.561 42.0156 144.912 41.8926C145.659 41.6289 146.261 41.2949 146.718 40.8906C147.043 40.6094 147.281 40.4688 147.43 40.4688C147.764 40.4688 147.931 40.6182 147.931 40.917C147.931 41.2158 147.659 41.5718 147.114 41.9849C145.848 42.8286 144.328 43.2505 142.552 43.2505C140.241 43.2505 138.373 42.5562 136.949 41.1675C135.552 39.7964 134.853 38.0166 134.853 35.8281C134.853 33.7539 135.596 32.04 137.081 30.6865C138.558 29.3506 140.412 28.6826 142.645 28.6826C143.919 28.6826 145.145 28.9463 146.323 29.4736C147.219 29.8604 147.667 30.2603 147.667 30.6733C147.667 30.8491 147.615 30.9854 147.509 31.082C147.413 31.1699 147.303 31.2139 147.18 31.2139C146.995 31.2139 146.758 31.1128 146.468 30.9106C145.896 30.3657 145.048 29.9834 143.923 29.7637C143.519 29.6846 143.075 29.645 142.592 29.645C142.108 29.645 141.691 29.6802 141.339 29.7505V42.1562ZM163.171 39.7964C163.514 39.7964 163.686 39.9546 163.686 40.271C163.686 40.5083 163.532 40.7896 163.224 41.1147C161.835 42.5386 159.933 43.2505 157.516 43.2505C155.345 43.2505 153.517 42.5957 152.031 41.2861C150.493 39.9238 149.724 38.2012 149.724 36.1182C149.724 33.9912 150.418 32.2422 151.807 30.8711C153.275 29.4121 155.226 28.6826 157.661 28.6826C159.612 28.6826 161.251 29.2759 162.578 30.4624C164.011 31.7368 164.727 33.4111 164.727 35.4854C164.727 35.7842 164.718 36.1006 164.701 36.4346H156V42.0903C156.597 42.2134 157.27 42.2749 158.017 42.2749C159.599 42.2749 160.948 41.752 162.064 40.7061C162.292 40.4775 162.455 40.2974 162.552 40.1655C162.754 39.9194 162.96 39.7964 163.171 39.7964ZM159.651 29.8955C159.08 29.7285 158.434 29.645 157.713 29.645C156.993 29.645 156.421 29.6934 156 29.79V35.4722H159.651V29.8955ZM177.832 30.3569C177.612 30.2163 177.375 30.146 177.12 30.146C176.865 30.146 176.601 30.2075 176.329 30.3306C176.056 30.4448 175.771 30.6074 175.472 30.8184C174.848 31.2666 174.272 31.8643 173.745 32.6113V43H168.076V28.9199H173.745V31.1743C175.248 29.5132 176.948 28.6826 178.847 28.6826C181.949 28.6826 183.5 30.1855 183.5 33.1914V43H177.832V30.3569ZM193.098 42.1562C193.511 42.2354 193.924 42.2749 194.337 42.2749C194.759 42.2749 195.164 42.2441 195.55 42.1826C195.946 42.1123 196.319 42.0156 196.671 41.8926C197.418 41.6289 198.02 41.2949 198.477 40.8906C198.802 40.6094 199.04 40.4688 199.189 40.4688C199.523 40.4688 199.69 40.6182 199.69 40.917C199.69 41.2158 199.417 41.5718 198.873 41.9849C197.607 42.8286 196.086 43.2505 194.311 43.2505C192 43.2505 190.132 42.5562 188.708 41.1675C187.311 39.7964 186.612 38.0166 186.612 35.8281C186.612 33.7539 187.354 32.04 188.84 30.6865C190.316 29.3506 192.171 28.6826 194.403 28.6826C195.678 28.6826 196.904 28.9463 198.082 29.4736C198.978 29.8604 199.426 30.2603 199.426 30.6733C199.426 30.8491 199.374 30.9854 199.268 31.082C199.171 31.1699 199.062 31.2139 198.938 31.2139C198.754 31.2139 198.517 31.1128 198.227 30.9106C197.655 30.3657 196.807 29.9834 195.682 29.7637C195.278 29.6846 194.834 29.645 194.351 29.645C193.867 29.645 193.45 29.6802 193.098 29.7505V42.1562ZM214.93 39.7964C215.273 39.7964 215.444 39.9546 215.444 40.271C215.444 40.5083 215.291 40.7896 214.983 41.1147C213.594 42.5386 211.691 43.2505 209.274 43.2505C207.104 43.2505 205.275 42.5957 203.79 41.2861C202.252 39.9238 201.483 38.2012 201.483 36.1182C201.483 33.9912 202.177 32.2422 203.566 30.8711C205.034 29.4121 206.985 28.6826 209.419 28.6826C211.371 28.6826 213.01 29.2759 214.337 30.4624C215.77 31.7368 216.486 33.4111 216.486 35.4854C216.486 35.7842 216.477 36.1006 216.459 36.4346H207.758V42.0903C208.356 42.2134 209.028 42.2749 209.775 42.2749C211.357 42.2749 212.707 41.752 213.823 40.7061C214.051 40.4775 214.214 40.2974 214.311 40.1655C214.513 39.9194 214.719 39.7964 214.93 39.7964ZM211.41 29.8955C210.839 29.7285 210.193 29.645 209.472 29.645C208.751 29.645 208.18 29.6934 207.758 29.79V35.4722H211.41V29.8955ZM130.001 75.1299C128.876 75.877 127.628 76.2505 126.257 76.2505C124.438 76.2505 122.979 75.7935 121.88 74.8794C120.738 73.939 120.167 72.6338 120.167 70.9639C120.167 69.4873 120.733 68.2744 121.867 67.3252C123.027 66.3672 124.552 65.8882 126.442 65.8882C127.708 65.8882 128.894 66.1299 130.001 66.6133V62.9878C129.202 62.7593 128.494 62.645 127.879 62.645C127.272 62.645 126.758 62.6714 126.336 62.7241C125.915 62.7769 125.515 62.856 125.137 62.9614C124.319 63.1899 123.7 63.4976 123.278 63.8843C123.032 64.1128 122.808 64.2271 122.605 64.2271C122.403 64.2271 122.25 64.1787 122.144 64.082C122.039 63.9766 121.986 63.8623 121.986 63.7393C121.986 63.6162 122.008 63.5063 122.052 63.4097C122.096 63.3042 122.179 63.1987 122.302 63.0933C122.566 62.8647 123.005 62.6362 123.621 62.4077C124.895 61.9243 126.174 61.6826 127.457 61.6826C131.359 61.6826 133.851 62.6143 134.932 64.4775C135.407 65.3037 135.644 66.3892 135.644 67.7339V76H130.001V75.1299ZM130.001 67.6416C128.894 67.1055 127.791 66.8374 126.692 66.8374C126.517 66.8374 126.35 66.8506 126.191 66.877V75.2617C126.235 75.2705 126.284 75.2749 126.336 75.2749C126.389 75.2749 126.442 75.2749 126.495 75.2749C127.699 75.2749 128.868 74.8486 130.001 73.9961V67.6416ZM139.771 57.3452H145.439V76H139.771V57.3452ZM149.764 57.3452H155.433V76H149.764V57.3452ZM171.991 72.7964C172.334 72.7964 172.505 72.9546 172.505 73.271C172.505 73.5083 172.352 73.7896 172.044 74.1147C170.655 75.5386 168.752 76.2505 166.335 76.2505C164.165 76.2505 162.336 75.5957 160.851 74.2861C159.313 72.9238 158.544 71.2012 158.544 69.1182C158.544 66.9912 159.238 65.2422 160.627 63.8711C162.095 62.4121 164.046 61.6826 166.48 61.6826C168.432 61.6826 170.071 62.2759 171.398 63.4624C172.831 64.7368 173.547 66.4111 173.547 68.4854C173.547 68.7842 173.538 69.1006 173.521 69.4346H164.819V75.0903C165.417 75.2134 166.089 75.2749 166.836 75.2749C168.418 75.2749 169.768 74.752 170.884 73.7061C171.112 73.4775 171.275 73.2974 171.372 73.1655C171.574 72.9194 171.78 72.7964 171.991 72.7964ZM168.471 62.8955C167.9 62.7285 167.254 62.645 166.533 62.645C165.812 62.645 165.241 62.6934 164.819 62.79V68.4722H168.471V62.8955ZM176.896 61.9199H182.564V66.0596C183.171 64.5566 183.821 63.4536 184.516 62.7505C185.219 62.0386 185.922 61.6826 186.625 61.6826C187.021 61.6826 187.333 61.7881 187.561 61.999C187.798 62.2012 187.917 62.4297 187.917 62.6846C187.917 62.9395 187.882 63.1416 187.812 63.291C187.741 63.4404 187.649 63.5679 187.535 63.6733C187.297 63.8931 187.073 64.0029 186.862 64.0029C186.528 64.0029 186.282 63.9678 186.124 63.8975C185.852 63.7744 185.61 63.7129 185.399 63.7129C185.188 63.7129 184.92 63.8843 184.595 64.2271C184.27 64.561 183.958 65.0269 183.659 65.6245C182.929 67.0835 182.564 68.6655 182.564 70.3706V76H176.896V61.9199ZM192.083 79.1113C192.619 78.9443 192.993 78.729 193.204 78.4653C193.502 78.1138 193.863 77.481 194.285 76.5669L194.588 75.8682L187.403 61.9199H193.401L197.146 69.8828L199.308 64.8335C199.703 63.9106 199.962 63.2075 200.085 62.7241C200.208 62.2407 200.327 61.9463 200.441 61.8408C200.564 61.7354 200.709 61.6826 200.876 61.6826C201.052 61.6826 201.188 61.7354 201.285 61.8408C201.382 61.9463 201.43 62.0518 201.43 62.1572C201.43 62.2627 201.417 62.377 201.391 62.5C201.373 62.6143 201.329 62.7725 201.259 62.9746C201.197 63.168 201.105 63.4141 200.982 63.7129L195.511 76.3955C194.86 77.9248 194.236 79.0015 193.639 79.6255C193.129 80.1792 192.61 80.4561 192.083 80.4561C191.564 80.4561 191.305 80.2715 191.305 79.9023C191.305 79.542 191.564 79.2783 192.083 79.1113Z" fill="black"/>
</svg>
